<svg width="48" height="48" viewBox="0 0 48 48" fill="none" xmlns="http://www.w3.org/2000/svg">
<path d="M39.3598 3.83997H8.63984C5.99024 3.83997 3.83984 5.99037 3.83984 8.63997V39.36C3.83984 42.0096 5.99024 44.16 8.63984 44.16H39.3598C42.0094 44.16 44.1598 42.0096 44.1598 39.36V8.63997C44.1598 5.99037 42.0094 3.83997 39.3598 3.83997ZM35.5198 18.24H33.5998C31.5454 18.24 30.7198 18.72 30.7198 20.16V23.04H35.5198L34.5598 27.84H30.7198V42.24H25.9198V27.84H22.0798V23.04H25.9198V20.16C25.9198 16.32 27.8398 13.44 31.6798 13.44C34.4638 13.44 35.5198 14.4 35.5198 14.4V18.24Z" fill="#1B02AF"/>
</svg>
