<svg width="57" height="57" viewBox="0 0 57 57" fill="none" xmlns="http://www.w3.org/2000/svg">
<path d="M40.3953 49.8631L16.6453 49.8856C11.4203 49.8904 7.14179 45.6201 7.13585 40.3951L7.11329 16.6451C7.10854 11.4201 11.3788 7.14154 16.6038 7.1356L40.3538 7.11304C45.5788 7.10829 49.8573 11.3785 49.8633 16.6035L49.8858 40.3535C49.8918 45.5797 45.6203 49.8583 40.3953 49.8631Z" fill="#1B02AF"/>
<path d="M28.5 36.8125C23.9174 36.8125 20.1875 33.0837 20.1875 28.5C20.1875 23.9163 23.9174 20.1875 28.5 20.1875C33.0826 20.1875 36.8125 23.9163 36.8125 28.5C36.8125 33.0837 33.0826 36.8125 28.5 36.8125ZM28.5 22.5625C25.2261 22.5625 22.5625 25.2261 22.5625 28.5C22.5625 31.7739 25.2261 34.4375 28.5 34.4375C31.7739 34.4375 34.4375 31.7739 34.4375 28.5C34.4375 25.2261 31.7739 22.5625 28.5 22.5625Z" fill="white"/>
<path d="M37.4062 21.375C38.39 21.375 39.1875 20.5775 39.1875 19.5938C39.1875 18.61 38.39 17.8125 37.4062 17.8125C36.4225 17.8125 35.625 18.61 35.625 19.5938C35.625 20.5775 36.4225 21.375 37.4062 21.375Z" fill="white"/>
<path d="M35.625 43.9375H21.375C16.7924 43.9375 13.0625 40.2087 13.0625 35.625V21.375C13.0625 16.7913 16.7924 13.0625 21.375 13.0625H35.625C40.2076 13.0625 43.9375 16.7913 43.9375 21.375V35.625C43.9375 40.2087 40.2076 43.9375 35.625 43.9375ZM21.375 15.4375C18.1011 15.4375 15.4375 18.1011 15.4375 21.375V35.625C15.4375 38.8989 18.1011 41.5625 21.375 41.5625H35.625C38.8989 41.5625 41.5625 38.8989 41.5625 35.625V21.375C41.5625 18.1011 38.8989 15.4375 35.625 15.4375H21.375Z" fill="white"/>
</svg>
