<svg width="132" height="50" viewBox="0 0 132 50" fill="none" xmlns="http://www.w3.org/2000/svg">
<path d="M3.30502 11.8958V16.4305H0.606995V3.56333H5.71725C6.61136 3.54527 7.49799 3.72674 8.3104 4.09409C9.02403 4.41751 9.62367 4.94217 10.033 5.60136C10.4403 6.27216 10.6492 7.0413 10.6361 7.82232C10.6361 9.0831 10.1991 10.0776 9.32511 10.8059C8.45111 11.5342 7.23276 11.8975 5.67006 11.8958H3.30502ZM3.30502 9.74956H5.71725C6.43043 9.74956 6.97406 9.58466 7.34813 9.25487C7.54067 9.07334 7.69061 8.85275 7.78752 8.60846C7.88443 8.36416 7.92596 8.10204 7.90923 7.84036C7.92248 7.56195 7.87974 7.2837 7.78346 7.02153C7.68718 6.75936 7.53925 6.51842 7.34813 6.31248C7.14198 6.11137 6.89594 5.95407 6.6253 5.85035C6.35467 5.74663 6.06521 5.69872 5.77493 5.70957H3.30502V9.74956Z" fill="#1B02AF"/>
<path d="M23.2426 10.288C23.266 11.4347 23.0315 12.5722 22.5557 13.6195C22.1388 14.5292 21.4585 15.2981 20.5997 15.8301C19.7212 16.3545 18.7091 16.6226 17.6814 16.6031C16.6583 16.619 15.6514 16.3511 14.7762 15.8301C13.9176 15.3085 13.2317 14.5531 12.8019 13.6556C12.3187 12.6272 12.076 11.5056 12.0913 10.3731V9.72378C12.0664 8.57013 12.3048 7.42564 12.7888 6.3743C13.2099 5.46197 13.8946 4.69142 14.7579 4.15849C15.6338 3.63488 16.6432 3.3668 17.6683 3.38554C18.6926 3.36644 19.7012 3.63456 20.5761 4.15849C21.4442 4.68986 22.133 5.4617 22.5557 6.37688C23.0413 7.4277 23.2797 8.57255 23.2531 9.72636L23.2426 10.288ZM20.5105 9.70575C20.5105 8.35565 20.264 7.33019 19.7711 6.62938C19.5427 6.29193 19.2298 6.01796 18.8624 5.83384C18.495 5.64972 18.0856 5.56167 17.6735 5.57816C17.2634 5.55944 16.8552 5.64435 16.488 5.82478C16.1208 6.0052 15.8068 6.27513 15.5759 6.60877C15.083 7.29584 14.8339 8.31099 14.8287 9.65422V10.2803C14.8287 11.5943 15.0743 12.6138 15.5654 13.3386C15.7912 13.6867 16.1058 13.9705 16.478 14.1618C16.8502 14.353 17.2669 14.445 17.6866 14.4285C18.095 14.4477 18.5015 14.363 18.8667 14.1824C19.2319 14.0018 19.5434 13.7316 19.7711 13.3979C20.2588 12.6997 20.5026 11.6819 20.5105 10.3447V9.70575Z" fill="#1B02AF"/>
<path d="M31.9948 13.0552C32.0069 12.8342 31.9641 12.6136 31.87 12.4125C31.7759 12.2114 31.6333 12.0358 31.4547 11.9009C30.8545 11.5233 30.1994 11.2375 29.5118 11.0533C28.7466 10.8243 28.0035 10.5294 27.291 10.1721C25.8052 9.38369 25.0614 8.32044 25.0597 6.98237C25.0511 6.31538 25.2607 5.66331 25.6575 5.12212C26.0975 4.54773 26.6924 4.10592 27.3749 3.84674C28.1759 3.52892 29.0335 3.37209 29.8972 3.38554C30.7573 3.37066 31.6103 3.54128 32.396 3.88539C33.089 4.1862 33.6803 4.67514 34.1003 5.29474C34.507 5.90714 34.7188 6.62475 34.7086 7.35596H31.9948C32.0096 7.09977 31.9664 6.84356 31.8685 6.60568C31.7706 6.36781 31.6203 6.15417 31.4285 5.9801C30.9772 5.63029 30.4106 5.45602 29.8369 5.49056C29.2917 5.45768 28.7507 5.6026 28.2978 5.9028C28.1234 6.02538 27.9822 6.18813 27.8867 6.3768C27.7911 6.56546 27.7441 6.77428 27.7498 6.98494C27.7554 7.19975 27.8175 7.40948 27.9301 7.5937C28.0427 7.77791 28.2019 7.93035 28.3922 8.03616C28.9815 8.38867 29.6189 8.65676 30.2853 8.83231C31.8218 9.28578 32.9405 9.84832 33.6414 10.5199C33.9847 10.8432 34.2553 11.2335 34.436 11.6657C34.6166 12.0979 34.7032 12.5624 34.6902 13.0295C34.7112 13.5363 34.605 14.0404 34.381 14.4974C34.1569 14.9543 33.8219 15.3501 33.4055 15.6498C32.5454 16.2836 31.3909 16.5997 29.9418 16.5979C28.9953 16.6104 28.0569 16.4251 27.1887 16.0543C26.4278 15.745 25.7721 15.2294 25.2983 14.5676C24.8623 13.9207 24.6374 13.1585 24.6533 12.3828H27.3591C27.3591 13.8033 28.2227 14.5135 29.9497 14.5135C30.4795 14.5441 31.0055 14.4088 31.4521 14.1271C31.6266 14.0073 31.7677 13.8464 31.8626 13.6592C31.9574 13.4719 32.0029 13.2642 31.9948 13.0552Z" fill="#1B02AF"/>
<path d="M46.8851 14.8047C46.3324 15.4209 45.6216 15.88 44.8268 16.1342C43.8789 16.4583 42.8807 16.6178 41.8771 16.6057C40.8349 16.6286 39.8055 16.3768 38.8959 15.8765C38.0342 15.3835 37.3442 14.6462 36.9163 13.7612C36.4303 12.741 36.1864 11.6257 36.2031 10.4993V9.62588C36.1749 8.47979 36.4003 7.34134 36.8638 6.28929C37.2596 5.39294 37.9247 4.63688 38.77 4.12243C39.6564 3.61356 40.67 3.35832 41.6962 3.38555C43.2484 3.38555 44.4624 3.74969 45.3381 4.47799C46.2139 5.20629 46.7321 6.26524 46.893 7.65484H44.271C44.1504 6.91796 43.8882 6.37861 43.4844 6.03679C43.0008 5.67113 42.3998 5.48826 41.7906 5.52148C41.3815 5.50037 40.9738 5.58287 40.6065 5.76108C40.2392 5.93929 39.9246 6.20723 39.693 6.53921C39.214 7.21769 38.9711 8.22512 38.9641 9.56147V10.3834C38.9641 11.73 39.2263 12.7495 39.7507 13.4417C40.2751 14.1339 41.0398 14.4775 42.0449 14.4723C43.057 14.4723 43.7807 14.2585 44.2107 13.8359V11.6227H41.7565V9.66968H46.9087L46.8851 14.8047Z" fill="#1B02AF"/>
<path d="M53.9173 11.7206H51.7699V16.4305H49.0718V3.56332H53.9356C55.4826 3.56332 56.6756 3.90171 57.5146 4.57847C58.3537 5.25524 58.7741 6.21285 58.7758 7.4513C58.805 8.22328 58.6026 8.98667 58.1937 9.64649C57.7598 10.2721 57.1492 10.7593 56.437 11.0481L59.2635 16.3068V16.4305H56.3793L53.9173 11.7206ZM51.7699 9.57178H53.9461C54.5185 9.60579 55.0822 9.42117 55.5193 9.05647C55.7096 8.87615 55.8581 8.65756 55.9545 8.41565C56.0509 8.17373 56.0929 7.91421 56.0778 7.65484C56.0928 7.39408 56.0541 7.13301 55.964 6.88729C55.8739 6.64158 55.7343 6.41627 55.5534 6.22487C55.2038 5.88134 54.6654 5.70957 53.9382 5.70957H51.7725L51.7699 9.57178Z" fill="#1B02AF"/>
<path d="M68.2176 13.7792H63.498L62.5987 16.4305H59.7197L64.594 3.56332H67.0928L71.9933 16.4305H69.1248L68.2176 13.7792ZM64.2164 11.6304H67.4887L65.8421 6.8149L64.2164 11.6304Z" fill="#1B02AF"/>
<path d="M73.2177 16.4305V3.56336H77.2451C78.3269 3.54819 79.3935 3.81489 80.3364 4.33631C81.2427 4.84471 81.9809 5.59874 82.4628 6.50832C82.9835 7.49811 83.2457 8.5995 83.2258 9.71352V10.3061C83.2473 11.4147 82.9897 12.5113 82.476 13.4984C81.9976 14.406 81.2617 15.1578 80.3574 15.6627C79.4164 16.1817 78.353 16.4482 77.2739 16.4357L73.2177 16.4305ZM75.9157 5.7096V14.2997H77.2267C78.2755 14.2997 79.0822 13.9613 79.6468 13.2846C80.2114 12.6078 80.4964 11.6382 80.5016 10.3757V9.69548C80.5016 8.39004 80.2254 7.39894 79.673 6.72217C79.1207 6.04541 78.314 5.70788 77.2529 5.7096H75.9157Z" fill="#1B02AF"/>
<path d="M95.9425 10.2881C95.968 11.4346 95.7342 12.5724 95.2582 13.6195C94.843 14.5303 94.1623 15.2996 93.3022 15.8302C92.4184 16.3355 91.4142 16.6017 90.3918 16.6017C89.3693 16.6017 88.3651 16.3355 87.4814 15.8302C86.6201 15.3101 85.9321 14.5544 85.5018 13.6556C85.0174 12.6276 84.7745 11.5058 84.7912 10.3731V9.72381C84.7663 8.57015 85.0046 7.42567 85.4886 6.37433C85.909 5.4615 86.5939 4.69075 87.4578 4.15852C88.3406 3.65188 89.3445 3.38489 90.3669 3.38489C91.3892 3.38489 92.3931 3.65188 93.276 4.15852C94.1398 4.69075 94.8247 5.4615 95.2451 6.37433C95.7291 7.42567 95.9674 8.57015 95.9425 9.72381V10.2881ZM93.2078 9.70577C93.2078 8.35567 92.9622 7.33022 92.471 6.6294C92.2298 6.30584 91.9146 6.04248 91.5508 5.86054C91.1871 5.67859 90.7849 5.58315 90.3767 5.5819C89.9685 5.58064 89.5658 5.67361 89.2009 5.85332C88.836 6.03303 88.5191 6.29445 88.2758 6.61652C87.7846 7.30359 87.5364 8.31874 87.5312 9.66197V10.2881C87.5312 11.6021 87.7768 12.6215 88.268 13.3464C88.5036 13.6763 88.8159 13.9462 89.1789 14.1338C89.542 14.3213 89.9453 14.4211 90.3554 14.4249C90.7656 14.4287 91.1707 14.3363 91.5373 14.1555C91.9038 13.9746 92.2212 13.7105 92.4631 13.385C92.9491 12.6877 93.1947 11.6699 93.1999 10.3319L93.2078 9.70577Z" fill="#1B02AF"/>
<path d="M104.692 13.0553C104.705 12.8344 104.662 12.6139 104.569 12.4128C104.475 12.2116 104.333 12.036 104.155 11.901C103.554 11.5244 102.899 11.2386 102.212 11.0533C101.446 10.8243 100.703 10.5295 99.9908 10.1722C98.5015 9.38375 97.7578 8.3205 97.7595 6.98243C97.751 6.31544 97.9605 5.66337 98.3573 5.12218C98.7969 4.5473 99.3919 4.10537 100.075 3.8468C100.873 3.52999 101.728 3.37319 102.589 3.3856C103.449 3.37097 104.302 3.54158 105.088 3.88545C105.781 4.18627 106.372 4.6752 106.792 5.29481C107.199 5.90721 107.411 6.62482 107.401 7.35602H104.703C104.717 7.09984 104.674 6.84362 104.576 6.60575C104.478 6.36787 104.328 6.15424 104.136 5.98016C103.685 5.63078 103.118 5.45657 102.545 5.49062C101.999 5.45775 101.458 5.60266 101.006 5.90287C100.831 6.02544 100.69 6.18819 100.594 6.37686C100.499 6.56553 100.452 6.77434 100.458 6.98501C100.463 7.19982 100.525 7.40954 100.638 7.59376C100.75 7.77798 100.91 7.93041 101.1 8.03623C101.689 8.38873 102.327 8.65682 102.993 8.83237C104.528 9.28584 105.646 9.84838 106.347 10.52C106.69 10.8433 106.96 11.2336 107.141 11.6657C107.322 12.0979 107.408 12.5625 107.395 13.0295C107.416 13.5366 107.309 14.0408 107.085 14.4978C106.86 14.9548 106.525 15.3504 106.108 15.6499C105.251 16.2837 104.098 16.5997 102.647 16.598C101.704 16.6115 100.77 16.4288 99.9043 16.0621C99.1431 15.7521 98.4867 15.2367 98.0112 14.5754C97.5718 13.9269 97.3448 13.1618 97.361 12.3828H100.062C100.062 13.8033 100.925 14.5136 102.652 14.5136C103.182 14.5434 103.708 14.4082 104.155 14.1271C104.328 14.007 104.469 13.8459 104.562 13.6586C104.656 13.4713 104.701 13.2639 104.692 13.0553Z" fill="#1B02AF"/>
<path d="M1.9311 20.7462L7.31666 32.9151L12.7206 20.7462H13.4311V33.6133H12.9461V21.4547L7.51593 33.6133H7.12788L1.72396 21.5166V33.6262H1.23889V20.7462H1.9311Z" fill="#1B02AF"/>
<path d="M24.079 27.2339H17.5241V33.1367H24.9967V33.6133H17.0285V20.7462H24.9967V21.2254H17.5162V26.7572H24.0712L24.079 27.2339Z" fill="#1B02AF"/>
<path d="M27.5165 33.6133V20.7462H31.1401C32.1051 20.7343 33.0555 20.9791 33.8905 21.4547C34.7114 21.9255 35.3817 22.6127 35.8256 23.4386C36.2994 24.3189 36.5461 25.3001 36.544 26.296V27.9682C36.5599 28.9751 36.3241 29.9704 35.857 30.8668C35.4216 31.7024 34.7556 32.4007 33.9351 32.8816C33.1031 33.3669 32.1521 33.6198 31.1846 33.6133H27.5165ZM28.0015 21.2254V33.1367H31.1479C32.028 33.1465 32.894 32.9192 33.6519 32.4797C34.4039 32.0402 35.016 31.403 35.4192 30.64C35.8504 29.832 36.0728 28.9321 36.0668 28.0197V26.3681C36.0784 25.4595 35.8642 24.5618 35.4428 23.753C35.0463 22.9861 34.4385 22.3442 33.6886 21.9005C32.9399 21.4575 32.0822 21.2241 31.2082 21.2254H28.0015Z" fill="#1B02AF"/>
<path d="M40.4115 33.6133H39.9264V20.7462H40.4115V33.6133Z" fill="#1B02AF"/>
<path d="M53.2722 29.6738C53.1464 30.9981 52.6814 32.0159 51.8773 32.727C51.075 33.4355 49.9816 33.7911 48.6051 33.7911C47.73 33.8065 46.8701 33.5652 46.1352 33.098C45.3993 32.6108 44.8207 31.9269 44.4676 31.127C44.0567 30.2065 43.8511 29.2102 43.8645 28.2052V26.2187C43.8463 25.2092 44.0456 24.2073 44.4492 23.2789C44.7967 22.4673 45.3759 21.7719 46.1168 21.2769C46.8553 20.8014 47.7224 20.5555 48.6051 20.5709C49.972 20.5709 51.0602 20.9248 51.8695 21.6325C52.6788 22.3402 53.1464 23.3527 53.2722 24.6702H52.7845C52.6482 23.4867 52.2287 22.5875 51.526 21.9726C50.8233 21.3576 49.8497 21.0493 48.6051 21.0476C48.0148 21.0306 47.4287 21.1497 46.8937 21.3953C46.3587 21.6409 45.8897 22.0063 45.5243 22.4621C44.7412 23.4051 44.3496 24.6685 44.3496 26.2522V28.1433C44.3332 29.0668 44.5118 29.9836 44.874 30.8358C45.1855 31.5719 45.7051 32.2049 46.3712 32.66C47.0306 33.0988 47.8115 33.3273 48.6077 33.3144C49.8584 33.3144 50.839 33.0104 51.5417 32.4023C52.2444 31.7943 52.6613 30.8873 52.7872 29.6738H53.2722Z" fill="#1B02AF"/>
<path d="M57.1475 33.6133H56.6625V20.7462H57.1475V33.6133Z" fill="#1B02AF"/>
<path d="M70.538 33.6133H70.053L61.5997 21.5604V33.6133H61.0989V20.7462H61.5944L70.0477 32.776V20.7462H70.538V33.6133Z" fill="#1B02AF"/>
<path d="M81.1938 29.7692H74.7831L73.3252 33.6133H72.8008L77.6961 20.7462H78.2887L83.1918 33.6133H82.6674L81.1938 29.7692ZM74.9614 29.2925H81.026L77.9924 21.3208L74.9614 29.2925Z" fill="#1B02AF"/>
<path d="M116.14 50L114.239 40.5261L113.122 3.12532L112.49 2.06122L111.929 2.98104L110.804 41.701L106.153 37.0633H100.851L100.738 36.6923C99.3616 32.1447 97.4869 27.002 96.6924 26.0847C95.8507 26.9685 93.7059 32.0391 92.0856 36.5351L91.9597 36.8829H0.530953C0.390135 36.8829 0.255085 36.828 0.155512 36.7301C0.0559395 36.6323 0 36.4996 0 36.3612C0 36.2228 0.0559395 36.0901 0.155512 35.9922C0.255085 35.8944 0.390135 35.8394 0.530953 35.8394H91.2124C91.514 35.0175 92.3163 32.8584 93.2025 30.7225C95.5964 24.9665 96.2336 24.9665 96.7003 24.9665C97.167 24.9665 97.8251 24.9665 99.9227 30.8461C100.691 33.0027 101.375 35.1798 101.64 36.0301H106.598L109.815 39.2276L110.88 2.67443L112.511 0L114.176 2.83418V2.96815L115.298 40.4514L116.129 44.5738L117.891 35.6488H131.054C131.194 35.6488 131.329 35.7037 131.429 35.8016C131.529 35.8994 131.585 36.0321 131.585 36.1705C131.585 36.3089 131.529 36.4416 131.429 36.5394C131.329 36.6373 131.194 36.6923 131.054 36.6923H118.764L116.14 50Z" fill="#1B02AF"/>
<path d="M1.27295 46.9417V40.7091H3.34956C4.03915 40.7091 4.55568 40.8508 4.9044 41.1291C5.08308 41.2831 5.22331 41.4754 5.31424 41.6912C5.40517 41.907 5.44437 42.1405 5.4288 42.3735C5.42995 42.6524 5.33783 42.924 5.1666 43.1465C4.98785 43.3758 4.7497 43.5538 4.47702 43.6618C4.80272 43.743 5.08985 43.9323 5.28984 44.1977C5.49228 44.4722 5.5973 44.8044 5.58874 45.1433C5.60163 45.3897 5.55868 45.6358 5.46301 45.864C5.36734 46.0921 5.22132 46.2965 5.0355 46.4625C4.58955 46.808 4.029 46.9788 3.46231 46.9417H1.27295ZM2.10412 43.3655H3.36792C3.68421 43.3814 3.99584 43.2854 4.24628 43.0949C4.35517 43.0058 4.44164 42.8932 4.49894 42.7658C4.55625 42.6384 4.58284 42.4998 4.57666 42.3606C4.58902 42.2208 4.56769 42.08 4.51439 41.9497C4.4611 41.8195 4.37733 41.7034 4.26988 41.6109C3.99475 41.4354 3.66883 41.3531 3.3417 41.3764H2.10412V43.3655ZM2.10412 44.0251V46.2692H3.49377C3.82837 46.2878 4.15784 46.182 4.41671 45.9729C4.53014 45.8682 4.61893 45.7403 4.6769 45.5984C4.73487 45.4564 4.76061 45.3037 4.75233 45.151C4.75233 44.4004 4.33718 44.0251 3.50688 44.0251H2.10412Z" fill="#999999"/>
<path d="M11.3021 40.7091V44.9526C11.3107 45.2179 11.2653 45.4822 11.1685 45.73C11.0717 45.9777 10.9254 46.204 10.7384 46.3955C10.3295 46.7848 9.78678 47.0091 9.21763 47.0241H8.99476C8.39482 47.0538 7.80593 46.8575 7.34815 46.4753C7.1387 46.2809 6.97414 46.0446 6.86558 45.7824C6.75702 45.5201 6.70699 45.2381 6.71888 44.9552V40.7091H7.54742V44.9346C7.5276 45.1275 7.55182 45.3224 7.61832 45.5049C7.68482 45.6875 7.79192 45.8532 7.93184 45.9899C8.07175 46.1267 8.24094 46.231 8.42709 46.2954C8.61323 46.3597 8.81165 46.3825 9.00787 46.362C9.20554 46.3753 9.40391 46.3491 9.59095 46.2849C9.778 46.2207 9.94982 46.1198 10.096 45.9884C10.2275 45.8476 10.3288 45.6821 10.3937 45.5019C10.4585 45.3217 10.4857 45.1305 10.4736 44.9397V40.7091H11.3021Z" fill="#999999"/>
<path d="M16.2131 44.0586H13.46V46.2692H16.6562V46.9417H12.6236V40.7091H16.6143V41.3815H13.4679V43.3912H16.221L16.2131 44.0586Z" fill="#999999"/>
<path d="M22.5767 46.9417H21.7376L18.5414 42.1365V46.9417H17.6998V40.7091H18.5414L21.7455 45.5375V40.7091H22.5767V46.9417Z" fill="#999999"/>
<path d="M28.9481 44.025C28.9601 44.5743 28.8529 45.1197 28.6335 45.6251C28.4468 46.047 28.1376 46.4055 27.7446 46.6557C27.3421 46.9011 26.8757 47.0264 26.4022 47.0164C25.9312 47.0272 25.4677 46.9002 25.0704 46.6516C24.6731 46.4029 24.36 46.0438 24.1708 45.6199C23.9497 45.1337 23.8379 44.6065 23.8431 44.074V43.6231C23.8318 43.077 23.94 42.5348 24.1604 42.0334C24.3493 41.6021 24.6629 41.2348 25.0623 40.977C25.4604 40.7298 25.9235 40.6026 26.3943 40.6111C26.869 40.6018 27.3362 40.728 27.7394 40.9744C28.1379 41.2277 28.4495 41.5931 28.6335 42.0231C28.8529 42.5284 28.9601 43.0738 28.9481 43.6231V44.025ZM28.1143 43.6231C28.1143 42.8836 27.9649 42.3142 27.6607 41.92C27.5099 41.7342 27.3185 41.5842 27.1006 41.4811C26.8827 41.3781 26.644 41.3245 26.4022 41.3245C26.1603 41.3245 25.9216 41.3781 25.7037 41.4811C25.4858 41.5842 25.2944 41.7342 25.1436 41.92C24.8125 42.4056 24.6481 42.9825 24.6743 43.5664V44.025C24.6404 44.6224 24.8021 45.2147 25.1357 45.7152C25.2839 45.904 25.4735 46.0574 25.6905 46.1639C25.9075 46.2705 26.1461 46.3276 26.3887 46.3308C26.6312 46.334 26.8714 46.2833 27.0912 46.1825C27.311 46.0818 27.5048 45.9335 27.6581 45.7487C27.9859 45.2555 28.1457 44.6726 28.1143 44.0843V43.6231Z" fill="#999999"/>
<path d="M32.0735 44.1616C31.4982 44.0329 30.9603 43.7774 30.5003 43.4144C30.3427 43.2777 30.2172 43.109 30.1325 42.9199C30.0478 42.7309 30.006 42.5259 30.01 42.3194C30.0065 42.0846 30.0587 41.8522 30.1625 41.6407C30.2662 41.4292 30.4187 41.2443 30.6078 41.1007C31.0572 40.7614 31.615 40.5906 32.181 40.6189C32.5841 40.615 32.9827 40.7032 33.3451 40.8766C33.6673 41.0284 33.9398 41.2658 34.1317 41.5619C34.3174 41.8471 34.4149 42.1792 34.4123 42.5178H33.568C33.5769 42.3521 33.5488 42.1865 33.4859 42.0325C33.4229 41.8786 33.3266 41.74 33.2036 41.6263C32.9128 41.3946 32.5441 41.2787 32.1705 41.3017C31.8277 41.2787 31.487 41.3694 31.203 41.5593C31.0894 41.6477 30.9989 41.7612 30.9387 41.8907C30.8785 42.0201 30.8505 42.1618 30.8569 42.304C30.8567 42.4296 30.8864 42.5536 30.9438 42.6659C31.0012 42.7782 31.0846 42.8757 31.1872 42.9507C31.5254 43.1805 31.9056 43.3441 32.3068 43.4325C32.7391 43.5402 33.1551 43.7031 33.5444 43.9169C33.8137 44.0643 34.0416 44.275 34.2078 44.5301C34.356 44.7809 34.4304 45.0672 34.4228 45.3571C34.43 45.5924 34.3792 45.8259 34.2746 46.0377C34.17 46.2495 34.0149 46.4332 33.8223 46.5732C33.3526 46.8977 32.7859 47.0583 32.2124 47.0293C31.7921 47.0292 31.3765 46.9414 30.9932 46.7716C30.6434 46.6305 30.3403 46.3968 30.1175 46.0966C29.9133 45.8128 29.8059 45.4728 29.8107 45.1252H30.6524C30.6455 45.2967 30.6805 45.4674 30.7544 45.6229C30.8283 45.7784 30.9389 45.9143 31.0771 46.0193C31.4074 46.2507 31.8073 46.366 32.2124 46.3465C32.571 46.371 32.9279 46.2806 33.2298 46.0889C33.3436 46.0051 33.435 45.8955 33.4962 45.7694C33.5574 45.6433 33.5866 45.5045 33.5811 45.3649C33.5886 45.2294 33.5629 45.0942 33.5064 44.9705C33.4498 44.8468 33.364 44.7382 33.256 44.6537C32.8936 44.424 32.4936 44.2575 32.0735 44.1616Z" fill="#999999"/>
<path d="M41.219 45.3107H38.5498L37.952 46.9417H37.0894L39.5226 40.7091H40.2541L42.6821 46.9468H41.8247L41.219 45.3107ZM38.812 44.6383H40.9699L39.887 41.7191L38.812 44.6383Z" fill="#999999"/>
<path d="M44.4361 46.9417H43.5971V40.7091H44.4361V46.9417Z" fill="#999999"/>
<path d="M48.2957 44.4193H46.8038V46.9417H45.9622V40.7091H48.0597C48.6513 40.6705 49.2373 40.8415 49.7116 41.1909C49.9093 41.3654 50.0639 41.5818 50.1638 41.8238C50.2638 42.0657 50.3064 42.3268 50.2884 42.5874C50.2957 42.9507 50.1835 43.3067 49.9686 43.6025C49.742 43.899 49.4321 44.1238 49.0771 44.2492L50.5716 46.8927V46.9417H49.6723L48.2957 44.4193ZM46.8038 43.7468H48.0886C48.4483 43.7654 48.8023 43.6525 49.0823 43.4299C49.2036 43.3236 49.2993 43.1922 49.3628 43.0452C49.4263 42.8982 49.4558 42.7392 49.4494 42.5796C49.4606 42.4152 49.4349 42.2504 49.3742 42.0968C49.3135 41.9432 49.2192 41.8046 49.0981 41.6907C48.8118 41.4667 48.4513 41.3547 48.086 41.3764H46.8038V43.7468Z" fill="#999999"/>
<path d="M55.0526 44.0586H52.3021V46.2692H55.4983V46.9417H51.4631V40.7091H55.4537V41.3815H52.3074V43.3912H55.0578L55.0526 44.0586Z" fill="#999999"/>
<path d="M58.4114 44.1616C57.8361 44.0331 57.2981 43.7775 56.8382 43.4144C56.6806 43.2777 56.5551 43.109 56.4704 42.9199C56.3857 42.7309 56.3439 42.5259 56.3479 42.3194C56.3444 42.0846 56.3966 41.8522 56.5004 41.6407C56.6041 41.4292 56.7566 41.2443 56.9457 41.1007C57.3916 40.7643 57.9442 40.5937 58.5058 40.6189C58.9097 40.6153 59.309 40.7035 59.6725 40.8766C59.9945 41.0287 60.2669 41.2661 60.4591 41.5619C60.6448 41.8471 60.7423 42.1792 60.7397 42.5178H59.9007C59.909 42.3519 59.8805 42.1863 59.8171 42.0323C59.7537 41.8784 59.6569 41.7398 59.5336 41.6263C59.2429 41.3946 58.8741 41.2787 58.5005 41.3017C58.1578 41.2791 57.8172 41.3698 57.533 41.5593C57.4195 41.6477 57.3289 41.7612 57.2687 41.8907C57.2086 42.0201 57.1805 42.1618 57.1869 42.3039C57.1867 42.4296 57.2165 42.5536 57.2738 42.6659C57.3312 42.7782 57.4146 42.8757 57.5173 42.9507C57.8555 43.1805 58.2356 43.3441 58.6369 43.4325C59.0691 43.5402 59.4852 43.7031 59.8744 43.9168C60.1437 44.0643 60.3716 44.275 60.5378 44.5301C60.6868 44.7807 60.7621 45.067 60.7554 45.3571C60.7621 45.5926 60.7108 45.8262 60.6058 46.0379C60.5008 46.2497 60.3452 46.4333 60.1524 46.5732C59.6827 46.8977 59.1159 47.0583 58.5425 47.0293C58.1221 47.0292 57.7065 46.9414 57.3232 46.7716C56.9805 46.6346 56.6816 46.4095 56.458 46.1198C56.2538 45.836 56.1464 45.4959 56.1512 45.1484H56.9929C56.9861 45.3199 57.021 45.4905 57.0949 45.6461C57.1688 45.8016 57.2795 45.9375 57.4176 46.0425C57.7479 46.2739 58.1478 46.3891 58.553 46.3697C58.9115 46.3941 59.2684 46.3037 59.5703 46.112C59.6844 46.0284 59.7762 45.9189 59.8379 45.7928C59.8995 45.6667 59.9292 45.5278 59.9243 45.388C59.9312 45.2524 59.9051 45.1172 59.848 44.9935C59.791 44.8698 59.7048 44.7613 59.5965 44.6769C59.2349 44.4389 58.8339 44.2645 58.4114 44.1616Z" fill="#999999"/>
</svg>
