<svg width="502" height="494" viewBox="0 0 502 494" fill="none" xmlns="http://www.w3.org/2000/svg">
<path d="M237.872 37.3604L237.812 79.7384C181.412 82.7006 133.898 118.912 114.312 169.089L74.0518 155.91C79.0087 142.731 85.4164 130.278 93.0936 118.731C95.3908 118.973 97.6879 119.094 100.106 119.094C135.772 119.094 164.788 90.741 165.876 55.3151C187.759 44.7357 212.121 38.3881 237.872 37.3604Z" fill="#5AC0F9"/>
<path d="M218.528 386.843C218.528 389.201 216.594 391.135 214.236 391.135C213.874 391.135 213.511 391.075 213.148 391.015C211.879 393.191 211.274 395.609 211.274 398.148V399.78C210.186 399.599 209.158 399.357 208.07 399.176V398.148C208.07 394.944 208.917 391.8 210.549 389.08C210.126 388.415 209.944 387.69 209.944 386.843C209.944 384.486 211.879 382.551 214.236 382.551C216.594 382.551 218.528 384.486 218.528 386.843Z" fill="#C781FD"/>
<path d="M254.557 398.148V402.743C253.469 402.803 252.441 402.863 251.353 402.863V398.148C251.353 395.669 250.688 393.191 249.479 391.075C249.237 391.135 248.935 391.135 248.693 391.135C246.335 391.135 244.401 389.201 244.401 386.843C244.401 384.486 246.335 382.551 248.693 382.551C251.051 382.551 252.985 384.486 252.985 386.843C252.985 387.75 252.683 388.596 252.199 389.322C253.71 391.982 254.557 395.065 254.557 398.148Z" fill="#C781FD"/>
<path d="M346.683 372.334C332.78 381.644 317.486 389.08 301.224 394.279C289.376 377.171 269.548 365.987 247.182 365.987C224.392 365.987 204.262 377.594 192.474 395.186C175.064 389.926 158.803 382.188 143.993 372.334L168.959 338.118C190.963 352.385 217.198 360.667 245.368 360.667C273.599 360.667 299.834 352.385 321.838 338.057L346.683 372.334Z" fill="#C781FD"/>
<path d="M63.2312 236.979C64.8029 238.973 65.7097 241.452 65.7097 244.112C65.7097 245.805 65.347 247.377 64.7425 248.827C64.0775 244.898 63.5939 240.968 63.2312 236.979Z" fill="#FFD84F"/>
<path d="M67.9463 264.727C68.1881 265.392 68.3694 266.057 68.4903 266.782C68.309 266.117 68.1276 265.452 67.9463 264.727Z" fill="#FFD84F"/>
<path d="M156.204 328.808L131.238 363.085C115.037 350.148 101.134 334.551 90.1316 316.959C96.4185 306.863 100.045 295.014 100.045 282.259C100.045 256.022 84.6911 233.352 62.4453 222.772C62.4453 221.865 62.4453 221.019 62.4453 220.112C62.4453 203.064 64.8029 186.56 69.1553 170.903L109.415 184.082C106.332 195.568 104.761 207.719 104.761 220.173C104.761 263.881 124.83 303.055 156.204 328.808Z" fill="#FFD84F"/>
<path d="M411.063 296.284L411.909 295.619C411.607 296.223 411.365 296.828 411.063 297.432V296.284Z" fill="#FF5555"/>
<path d="M428.17 220.112C428.17 223.739 428.049 227.366 427.868 230.933C402.177 239.88 383.739 264.364 383.739 293.079C383.739 305.654 387.245 317.442 393.411 327.417C383.739 340.777 372.254 352.808 359.317 363.085L334.472 328.747C365.846 302.994 385.855 263.88 385.855 220.112C385.855 207.779 384.283 195.809 381.261 184.384L421.581 171.326C425.873 186.862 428.17 203.185 428.17 220.112Z" fill="#FF5555"/>
<path d="M370.319 86.6302H349.101V76.4135C349.101 74.3581 349.645 72.4236 350.673 70.6704C357.625 75.5067 364.153 80.8266 370.319 86.6302Z" fill="#7BD69E"/>
<path d="M416.745 156.394L376.425 169.452C357.02 119.275 309.688 83.0635 253.529 79.799L253.59 37.4209C276.5 38.4486 298.323 43.6476 318.272 52.353C321.052 86.0861 349.343 112.625 383.8 112.625C386.883 112.625 389.845 112.444 392.807 112.021C402.781 125.502 410.821 140.434 416.745 156.394Z" fill="#7BD69E"/>
<path d="M103.491 52.2925H73.9309V58.761H103.491V52.2925Z" fill="white"/>
<path d="M103.491 64.0205H73.9309V70.4891H103.491V64.0205Z" fill="white"/>
<path d="M118.301 64.867L109.476 67.2851L111.833 58.3984L118.301 64.867Z" fill="white"/>
<path d="M119.813 75.7485H73.9309V82.2171H119.813V75.7485Z" fill="white"/>
<path d="M72.4196 25.572V41.4109H121.928V25.572H72.4196ZM118.301 37.7837H76.0466V29.1992H118.301V37.7837Z" fill="white"/>
<path d="M144.211 26.0967L113.815 56.4854L120.226 62.8983L150.621 32.5096L144.211 26.0967Z" fill="white"/>
<path d="M128.155 39.9601V25.9953C128.155 22.0053 124.89 18.7408 120.901 18.7408H66.1931V85.4213C66.1931 89.4112 69.4575 92.6757 73.4472 92.6757H120.901C124.89 92.6757 128.155 89.4112 128.155 85.4213V57.4916L131.903 53.4412V85.3608C131.903 91.4666 126.946 96.4238 120.84 96.4238H73.4472C67.3417 96.4238 62.3848 91.4666 62.3848 85.3608V14.9927H120.901C127.006 14.9927 131.963 19.9499 131.963 26.0557V36.091L128.155 39.9601Z" fill="#5AC0F9"/>
<path d="M72.4196 25.572V41.4109H121.928V25.572H72.4196ZM118.301 37.7837H76.0466V29.1992H118.301V37.7837Z" fill="#5AC0F9"/>
<path d="M103.491 52.2925H73.9309V58.761H103.491V52.2925Z" fill="#5AC0F9"/>
<path d="M103.491 64.0205H73.9309V70.4891H103.491V64.0205Z" fill="#5AC0F9"/>
<path d="M119.813 75.7485H73.9309V82.2171H119.813V75.7485Z" fill="#5AC0F9"/>
<path d="M144.211 26.0967L113.815 56.4854L120.226 62.8983L150.621 32.5096L144.211 26.0967Z" fill="#5AC0F9"/>
<path d="M118.301 64.867L109.476 67.2851L111.833 58.3984L118.301 64.867Z" fill="#5AC0F9"/>
<path d="M354.904 34.8215L344.749 30.7106C341.001 33.3101 336.165 34.8215 330.845 34.8215C326.735 34.8215 322.926 33.9147 319.662 32.2824C322.382 20.1312 328.488 9.24956 336.89 0.725586C345.776 2.84147 352.245 9.55183 352.245 17.4108C352.245 20.4939 351.277 23.3353 349.585 25.8743L354.904 34.8215Z" fill="white"/>
<path d="M359.68 36.5139C359.68 25.3904 368.687 16.3828 379.81 16.3828C390.933 16.3828 399.94 25.3904 399.94 36.5139C399.94 47.6374 390.933 56.645 379.81 56.645C368.687 56.645 359.68 47.6374 359.68 36.5139Z" fill="white"/>
<path d="M410.519 76.3531V86.5698H400.847V78.9526H389.059V75.5672H387.85V78.9526H385.372V86.5698H349.101V76.3531C349.101 74.2977 349.645 72.3632 350.673 70.61C353.937 64.9274 361.917 60.877 371.226 60.877L379.085 70.0055L388.394 60.877C400.605 60.877 410.519 67.8291 410.519 76.3531Z" fill="white"/>
<path d="M399.94 36.5139C399.94 47.6374 390.933 56.645 379.81 56.645C368.687 56.645 359.68 47.6374 359.68 36.5139C359.68 25.3904 368.687 16.3828 379.81 16.3828C390.933 16.3828 399.94 25.3904 399.94 36.5139Z" fill="#7BD69E"/>
<path d="M410.519 76.3531V86.5698H400.847V78.9526H389.059V75.5672H387.85V78.9526H385.372V86.5698H349.101V76.3531C349.101 74.2977 349.645 72.3632 350.673 70.61C353.937 64.9274 361.917 60.877 371.226 60.877L379.085 70.0055L388.394 60.877C400.605 60.877 410.519 67.8291 410.519 76.3531Z" fill="#7BD69E"/>
<path d="M354.904 34.8213L344.749 30.7105C341.001 33.31 336.165 34.8213 330.845 34.8213C326.735 34.8213 322.926 33.9145 319.662 32.2823C313.496 29.1991 309.385 23.6979 309.385 17.4107C309.385 7.79853 318.997 0 330.845 0C332.961 0 335.016 0.241815 336.951 0.725445C345.837 2.84132 352.305 9.55169 352.305 17.4107C352.305 20.4938 351.338 23.3351 349.645 25.8742L354.904 34.8213Z" fill="#7BD69E"/>
<path d="M4.17108 267.508C3.02252 267.508 1.99486 267.024 1.20901 266.299C0.423153 265.573 0 264.485 0 263.336C0 261.039 1.87396 259.165 4.17108 259.165H9.55117C6.5891 260.797 4.47333 263.88 4.17108 267.508Z" fill="white"/>
<path d="M9.2489 244.112C9.2489 237.704 14.4476 232.505 20.8554 232.505C27.2631 232.505 32.4619 237.704 32.4619 244.112C32.4619 250.52 27.2631 255.719 20.8554 255.719C14.4476 255.719 9.2489 250.52 9.2489 244.112Z" fill="white"/>
<path d="M34.8195 267.508C34.8799 267.81 34.8799 268.112 34.8799 268.414V297.07H31.7365V331.891H9.97435V297.07H6.83093V268.414C6.83093 268.112 6.83093 267.81 6.89138 267.508C7.31454 263.578 10.6998 260.495 14.7499 260.495H26.9609C31.0111 260.435 34.3359 263.518 34.8195 267.508Z" fill="white"/>
<path d="M42.5571 244.112C42.5571 237.704 47.7559 232.505 54.1636 232.505C57.8511 232.505 61.1759 234.258 63.2916 236.918C64.8633 238.913 65.7701 241.392 65.7701 244.052C65.7701 245.744 65.4074 247.316 64.8029 248.767C62.9894 252.817 58.9392 255.659 54.2241 255.659C47.6954 255.719 42.5571 250.52 42.5571 244.112Z" fill="white"/>
<path d="M68.5507 267.991V298.339H64.9842V331.83H43.222V298.339H40.3204V267.991C40.3204 267.81 40.3204 267.689 40.3204 267.508H37.4792C37.177 263.88 35.0612 260.797 32.0991 259.165H59.725C63.4729 259.165 66.6768 261.523 68.0067 264.787C68.2485 265.452 68.4298 266.117 68.5507 266.843C68.5507 267.205 68.5507 267.568 68.5507 267.991Z" fill="white"/>
<path d="M65.7096 244.112C65.7096 245.805 65.3469 247.376 64.7424 248.827C62.9289 252.878 58.8787 255.719 54.1636 255.719C47.7559 255.719 42.5571 250.52 42.5571 244.112C42.5571 237.704 47.7559 232.505 54.1636 232.505C57.8511 232.505 61.1759 234.258 63.2916 236.918C64.8029 238.973 65.7096 241.452 65.7096 244.112Z" fill="#FFD84F"/>
<path d="M9.55117 259.104C6.52865 260.797 4.47333 263.88 4.17108 267.447C3.02252 267.447 1.99486 266.963 1.20901 266.238C0.423153 265.513 0 264.424 0 263.276C0 260.979 1.87396 259.104 4.17108 259.104H9.55117V259.104Z" fill="#FFD84F"/>
<path d="M68.5507 267.991V298.339H64.9842V331.83H43.222V298.339H40.3204V267.991C40.3204 267.81 40.3204 267.689 40.3204 267.508H37.4792C37.177 263.88 35.0612 260.797 32.0991 259.165H59.725C63.4729 259.165 66.6768 261.523 68.0067 264.787C68.2485 265.452 68.4298 266.117 68.5507 266.843C68.5507 267.205 68.5507 267.568 68.5507 267.991Z" fill="#FFD84F"/>
<path d="M32.4014 244.112C32.4014 250.52 27.2027 255.719 20.795 255.719C14.3872 255.719 9.18848 250.52 9.18848 244.112C9.18848 237.704 14.3872 232.505 20.795 232.505C27.2027 232.505 32.4014 237.764 32.4014 244.112Z" fill="#FFD84F"/>
<path d="M34.8799 268.354V297.009H31.7365V331.83H9.97435V297.009H6.83093V268.354C6.83093 268.052 6.83093 267.749 6.89138 267.447C7.31454 263.518 10.6998 260.435 14.7499 260.435H26.9609C31.0111 260.435 34.3963 263.518 34.8195 267.447C34.8195 267.749 34.8799 268.052 34.8799 268.354Z" fill="#FFD84F"/>
<path d="M281.81 463.283V431.182C281.81 425.076 276.853 420.119 270.748 420.119C264.642 420.119 259.685 425.076 259.685 431.182V474.829C259.685 483.353 253.398 490.305 245.6 490.305C237.863 490.305 231.515 483.353 231.515 474.829V445.267H236.956C246.628 445.267 254.486 437.408 254.486 427.736V398.597C254.486 395.514 253.64 392.431 252.129 389.771C252.612 389.106 252.915 388.199 252.915 387.292C252.915 384.935 250.98 383 248.623 383C246.265 383 244.331 384.935 244.331 387.292C244.331 389.65 246.265 391.584 248.623 391.584C248.925 391.584 249.167 391.584 249.409 391.524C250.618 393.7 251.282 396.118 251.282 398.597V427.736C251.282 435.655 244.875 442.063 236.956 442.063H225.531C217.612 442.063 211.204 435.655 211.204 427.736V398.597C211.204 396.058 211.869 393.64 213.078 391.464C213.441 391.524 213.803 391.584 214.166 391.584C216.523 391.584 218.458 389.65 218.458 387.292C218.458 384.935 216.523 383 214.166 383C211.808 383 209.874 384.935 209.874 387.292C209.874 388.139 210.116 388.864 210.478 389.529C208.846 392.249 208 395.393 208 398.597V427.736C208 437.408 215.859 445.267 225.531 445.267H228.311V474.829C228.311 485.106 236.049 493.509 245.54 493.509C255.03 493.509 262.768 485.167 262.768 474.829V431.182C262.768 426.829 266.274 423.323 270.627 423.323C274.979 423.323 278.485 426.829 278.485 431.182V463.283C274.012 464.068 270.566 467.937 270.566 472.653C270.566 477.912 274.858 482.144 280.057 482.144C285.316 482.144 289.548 477.912 289.548 472.653C289.669 467.937 286.283 464.068 281.81 463.283ZM280.178 479.605C276.369 479.605 273.226 476.461 273.226 472.653C273.226 468.844 276.369 465.701 280.178 465.701C284.047 465.701 287.13 468.844 287.13 472.653C287.13 476.461 284.047 479.605 280.178 479.605Z" fill="#C781FD"/>
<path d="M449.57 266.782L488.016 296.284V334.793H459.786V307.407H439.293V334.793H411.063V296.284L411.909 295.679L449.57 266.782Z" fill="white"/>
<path d="M488.016 296.284V334.793H459.786V307.407H439.293V334.793H411.063V296.284L411.909 295.679L449.57 266.782L488.016 296.284Z" fill="#FF5555"/>
<path d="M501.194 288.848L497.507 293.684C496.661 294.772 495.029 295.014 493.94 294.168L451.081 261.341C450.174 260.616 448.905 260.616 447.998 261.341L416.02 285.825L405.139 294.168C404.051 295.014 402.419 294.833 401.572 293.684L397.885 288.848C397.038 287.76 397.22 286.127 398.368 285.281L422.125 267.084L446.185 248.646C448.179 247.135 450.96 247.135 452.955 248.646L469.216 261.1V250.097C469.216 248.102 470.848 246.47 472.843 246.47H481.246C483.241 246.47 484.812 248.102 484.812 250.097V273.069L500.711 285.281C501.859 286.127 502.041 287.699 501.194 288.848Z" fill="#FF5555"/>
<path d="M177.539 203H176.273L154.242 171.031V203H152.953V168.875H154.242L176.273 200.773V168.875H177.539V203ZM203.273 203V198.898C202.523 200.305 201.43 201.422 199.992 202.25C198.555 203.062 196.734 203.469 194.531 203.469C191.766 203.469 189.688 202.664 188.297 201.055C186.922 199.43 186.219 197.07 186.188 193.977V177.641H187.453V194.023C187.484 196.711 188.094 198.75 189.281 200.141C190.469 201.516 192.203 202.203 194.484 202.203C196.906 202.203 198.875 201.633 200.391 200.492C201.906 199.352 202.867 197.68 203.273 195.477V177.641H204.562V203H203.273ZM221.695 203.469C219.648 203.469 217.766 202.922 216.047 201.828C214.344 200.719 213.008 199.203 212.039 197.281C211.07 195.359 210.586 193.227 210.586 190.883V189.828C210.586 187.484 211.055 185.336 211.992 183.383C212.93 181.43 214.219 179.906 215.859 178.812C217.5 177.719 219.289 177.172 221.227 177.172C224.055 177.172 226.367 178.18 228.164 180.195C229.961 182.211 230.859 184.859 230.859 188.141V189.477H211.852V190.859C211.852 192.922 212.281 194.836 213.141 196.602C214.016 198.352 215.211 199.727 216.727 200.727C218.258 201.727 219.914 202.227 221.695 202.227C223.398 202.227 224.844 201.945 226.031 201.383C227.234 200.805 228.297 199.922 229.219 198.734L230.109 199.367C228.219 202.102 225.414 203.469 221.695 203.469ZM221.227 178.438C218.758 178.438 216.664 179.359 214.945 181.203C213.227 183.031 212.219 185.367 211.922 188.211H229.594V187.906C229.594 186.188 229.227 184.594 228.492 183.125C227.773 181.641 226.773 180.492 225.492 179.68C224.227 178.852 222.805 178.438 221.227 178.438ZM252.398 196.789C252.398 193.711 249.773 191.617 244.523 190.508C241.367 189.836 239.172 188.977 237.938 187.93C236.703 186.867 236.086 185.414 236.086 183.57C236.086 181.711 236.867 180.18 238.43 178.977C240.008 177.773 242.055 177.172 244.57 177.172C247.305 177.172 249.5 177.828 251.156 179.141C252.812 180.438 253.641 182.195 253.641 184.414H252.352C252.352 182.711 251.633 181.289 250.195 180.148C248.758 179.008 246.883 178.438 244.57 178.438C242.352 178.438 240.594 178.922 239.297 179.891C238 180.859 237.352 182.07 237.352 183.523C237.352 184.664 237.594 185.562 238.078 186.219C238.562 186.859 239.352 187.445 240.445 187.977C241.539 188.492 243.133 188.992 245.227 189.477C247.32 189.961 248.977 190.531 250.195 191.188C251.414 191.844 252.297 192.625 252.844 193.531C253.391 194.422 253.664 195.516 253.664 196.812C253.664 198.812 252.844 200.422 251.203 201.641C249.562 202.859 247.414 203.469 244.758 203.469C241.914 203.469 239.617 202.828 237.867 201.547C236.133 200.25 235.266 198.586 235.266 196.555H236.531C236.656 198.336 237.438 199.727 238.875 200.727C240.328 201.711 242.289 202.203 244.758 202.203C247.023 202.203 248.859 201.68 250.266 200.633C251.688 199.57 252.398 198.289 252.398 196.789ZM263.508 170.797V177.641H269.273V178.93H263.508V196.93C263.508 198.727 263.797 200.055 264.375 200.914C264.969 201.773 265.953 202.203 267.328 202.203C268.016 202.203 268.852 202.133 269.836 201.992L270.047 203.188C269.531 203.375 268.648 203.469 267.398 203.469C265.555 203.469 264.234 202.961 263.438 201.945C262.641 200.914 262.234 199.297 262.219 197.094V178.93H257.531V177.641H262.219V170.797H263.508ZM287.039 178.555L285.398 178.414C283.242 178.414 281.438 179.117 279.984 180.523C278.531 181.914 277.578 183.867 277.125 186.383V203H275.859V177.641H277.125V182.914C277.812 181.148 278.844 179.75 280.219 178.719C281.594 177.688 283.32 177.172 285.398 177.172C286.133 177.172 286.727 177.258 287.18 177.43L287.039 178.555ZM289.547 189.828C289.547 187.406 290.008 185.234 290.93 183.312C291.867 181.375 293.18 179.867 294.867 178.789C296.57 177.711 298.492 177.172 300.633 177.172C302.758 177.172 304.664 177.695 306.352 178.742C308.039 179.789 309.352 181.273 310.289 183.195C311.242 185.117 311.727 187.281 311.742 189.688V190.812C311.742 193.25 311.281 195.43 310.359 197.352C309.438 199.273 308.125 200.773 306.422 201.852C304.734 202.93 302.82 203.469 300.68 203.469C298.539 203.469 296.617 202.938 294.914 201.875C293.227 200.812 291.914 199.328 290.977 197.422C290.039 195.5 289.562 193.344 289.547 190.953V189.828ZM290.812 190.812C290.812 192.922 291.227 194.859 292.055 196.625C292.898 198.375 294.062 199.742 295.547 200.727C297.047 201.711 298.758 202.203 300.68 202.203C303.57 202.203 305.922 201.117 307.734 198.945C309.562 196.773 310.477 193.977 310.477 190.555V189.828C310.477 187.75 310.055 185.828 309.211 184.062C308.367 182.297 307.195 180.922 305.695 179.938C304.211 178.938 302.523 178.438 300.633 178.438C297.742 178.438 295.383 179.539 293.555 181.742C291.727 183.945 290.812 186.719 290.812 190.062V190.812ZM333.539 196.789C333.539 193.711 330.914 191.617 325.664 190.508C322.508 189.836 320.312 188.977 319.078 187.93C317.844 186.867 317.227 185.414 317.227 183.57C317.227 181.711 318.008 180.18 319.57 178.977C321.148 177.773 323.195 177.172 325.711 177.172C328.445 177.172 330.641 177.828 332.297 179.141C333.953 180.438 334.781 182.195 334.781 184.414H333.492C333.492 182.711 332.773 181.289 331.336 180.148C329.898 179.008 328.023 178.438 325.711 178.438C323.492 178.438 321.734 178.922 320.438 179.891C319.141 180.859 318.492 182.07 318.492 183.523C318.492 184.664 318.734 185.562 319.219 186.219C319.703 186.859 320.492 187.445 321.586 187.977C322.68 188.492 324.273 188.992 326.367 189.477C328.461 189.961 330.117 190.531 331.336 191.188C332.555 191.844 333.438 192.625 333.984 193.531C334.531 194.422 334.805 195.516 334.805 196.812C334.805 198.812 333.984 200.422 332.344 201.641C330.703 202.859 328.555 203.469 325.898 203.469C323.055 203.469 320.758 202.828 319.008 201.547C317.273 200.25 316.406 198.586 316.406 196.555H317.672C317.797 198.336 318.578 199.727 320.016 200.727C321.469 201.711 323.43 202.203 325.898 202.203C328.164 202.203 330 201.68 331.406 200.633C332.828 199.57 333.539 198.289 333.539 196.789ZM169.688 250.047C169.688 248.719 169.219 247.703 168.281 247C167.344 246.281 165.656 245.531 163.219 244.75C160.781 243.953 158.852 243.172 157.43 242.406C153.555 240.312 151.617 237.492 151.617 233.945C151.617 232.102 152.133 230.461 153.164 229.023C154.211 227.57 155.703 226.438 157.641 225.625C159.594 224.812 161.781 224.406 164.203 224.406C166.641 224.406 168.812 224.852 170.719 225.742C172.625 226.617 174.102 227.859 175.148 229.469C176.211 231.078 176.742 232.906 176.742 234.953H169.711C169.711 233.391 169.219 232.18 168.234 231.32C167.25 230.445 165.867 230.008 164.086 230.008C162.367 230.008 161.031 230.375 160.078 231.109C159.125 231.828 158.648 232.781 158.648 233.969C158.648 235.078 159.203 236.008 160.312 236.758C161.438 237.508 163.086 238.211 165.258 238.867C169.258 240.07 172.172 241.562 174 243.344C175.828 245.125 176.742 247.344 176.742 250C176.742 252.953 175.625 255.273 173.391 256.961C171.156 258.633 168.148 259.469 164.367 259.469C161.742 259.469 159.352 258.992 157.195 258.039C155.039 257.07 153.391 255.75 152.25 254.078C151.125 252.406 150.562 250.469 150.562 248.266H157.617C157.617 252.031 159.867 253.914 164.367 253.914C166.039 253.914 167.344 253.578 168.281 252.906C169.219 252.219 169.688 251.266 169.688 250.047ZM192.75 259.469C189.031 259.469 186 258.328 183.656 256.047C181.328 253.766 180.164 250.727 180.164 246.93V246.273C180.164 243.727 180.656 241.453 181.641 239.453C182.625 237.438 184.016 235.891 185.812 234.812C187.625 233.719 189.688 233.172 192 233.172C195.469 233.172 198.195 234.266 200.18 236.453C202.18 238.641 203.18 241.742 203.18 245.758V248.523H187.031C187.25 250.18 187.906 251.508 189 252.508C190.109 253.508 191.508 254.008 193.195 254.008C195.805 254.008 197.844 253.062 199.312 251.172L202.641 254.898C201.625 256.336 200.25 257.461 198.516 258.273C196.781 259.07 194.859 259.469 192.75 259.469ZM191.977 238.656C190.633 238.656 189.539 239.109 188.695 240.016C187.867 240.922 187.336 242.219 187.102 243.906H196.523V243.367C196.492 241.867 196.086 240.711 195.305 239.898C194.523 239.07 193.414 238.656 191.977 238.656ZM221.297 239.992C220.375 239.867 219.562 239.805 218.859 239.805C216.297 239.805 214.617 240.672 213.82 242.406V259H207.047V233.641H213.445L213.633 236.664C214.992 234.336 216.875 233.172 219.281 233.172C220.031 233.172 220.734 233.273 221.391 233.477L221.297 239.992ZM234.492 250.727L239.203 233.641H246.281L237.727 259H231.258L222.703 233.641H229.781L234.492 250.727ZM256.43 259H249.633V233.641H256.43V259ZM249.234 227.078C249.234 226.062 249.57 225.227 250.242 224.57C250.93 223.914 251.859 223.586 253.031 223.586C254.188 223.586 255.109 223.914 255.797 224.57C256.484 225.227 256.828 226.062 256.828 227.078C256.828 228.109 256.477 228.953 255.773 229.609C255.086 230.266 254.172 230.594 253.031 230.594C251.891 230.594 250.969 230.266 250.266 229.609C249.578 228.953 249.234 228.109 249.234 227.078ZM272.578 254.008C273.828 254.008 274.844 253.664 275.625 252.977C276.406 252.289 276.812 251.375 276.844 250.234H283.195C283.18 251.953 282.711 253.531 281.789 254.969C280.867 256.391 279.602 257.5 277.992 258.297C276.398 259.078 274.633 259.469 272.695 259.469C269.07 259.469 266.211 258.32 264.117 256.023C262.023 253.711 260.977 250.523 260.977 246.461V246.016C260.977 242.109 262.016 238.992 264.094 236.664C266.172 234.336 269.023 233.172 272.648 233.172C275.82 233.172 278.359 234.078 280.266 235.891C282.188 237.688 283.164 240.086 283.195 243.086H276.844C276.812 241.773 276.406 240.711 275.625 239.898C274.844 239.07 273.812 238.656 272.531 238.656C270.953 238.656 269.758 239.234 268.945 240.391C268.148 241.531 267.75 243.391 267.75 245.969V246.672C267.75 249.281 268.148 251.156 268.945 252.297C269.742 253.438 270.953 254.008 272.578 254.008ZM294.211 259H287.414V233.641H294.211V259ZM287.016 227.078C287.016 226.062 287.352 225.227 288.023 224.57C288.711 223.914 289.641 223.586 290.812 223.586C291.969 223.586 292.891 223.914 293.578 224.57C294.266 225.227 294.609 226.062 294.609 227.078C294.609 228.109 294.258 228.953 293.555 229.609C292.867 230.266 291.953 230.594 290.812 230.594C289.672 230.594 288.75 230.266 288.047 229.609C287.359 228.953 287.016 228.109 287.016 227.078ZM298.758 246.086C298.758 243.57 299.242 241.328 300.211 239.359C301.18 237.391 302.57 235.867 304.383 234.789C306.211 233.711 308.328 233.172 310.734 233.172C314.156 233.172 316.945 234.219 319.102 236.312C321.273 238.406 322.484 241.25 322.734 244.844L322.781 246.578C322.781 250.469 321.695 253.594 319.523 255.953C317.352 258.297 314.438 259.469 310.781 259.469C307.125 259.469 304.203 258.297 302.016 255.953C299.844 253.609 298.758 250.422 298.758 246.391V246.086ZM305.531 246.578C305.531 248.984 305.984 250.828 306.891 252.109C307.797 253.375 309.094 254.008 310.781 254.008C312.422 254.008 313.703 253.383 314.625 252.133C315.547 250.867 316.008 248.852 316.008 246.086C316.008 243.727 315.547 241.898 314.625 240.602C313.703 239.305 312.406 238.656 310.734 238.656C309.078 238.656 307.797 239.305 306.891 240.602C305.984 241.883 305.531 243.875 305.531 246.578ZM340.688 251.992C340.688 251.164 340.273 250.516 339.445 250.047C338.633 249.562 337.32 249.133 335.508 248.758C329.477 247.492 326.461 244.93 326.461 241.07C326.461 238.82 327.391 236.945 329.25 235.445C331.125 233.93 333.57 233.172 336.586 233.172C339.805 233.172 342.375 233.93 344.297 235.445C346.234 236.961 347.203 238.93 347.203 241.352H340.43C340.43 240.383 340.117 239.586 339.492 238.961C338.867 238.32 337.891 238 336.562 238C335.422 238 334.539 238.258 333.914 238.773C333.289 239.289 332.977 239.945 332.977 240.742C332.977 241.492 333.328 242.102 334.031 242.57C334.75 243.023 335.953 243.422 337.641 243.766C339.328 244.094 340.75 244.469 341.906 244.891C345.484 246.203 347.273 248.477 347.273 251.711C347.273 254.023 346.281 255.898 344.297 257.336C342.312 258.758 339.75 259.469 336.609 259.469C334.484 259.469 332.594 259.094 330.938 258.344C329.297 257.578 328.008 256.539 327.07 255.227C326.133 253.898 325.664 252.469 325.664 250.938H332.086C332.148 252.141 332.594 253.062 333.422 253.703C334.25 254.344 335.359 254.664 336.75 254.664C338.047 254.664 339.023 254.422 339.68 253.938C340.352 253.438 340.688 252.789 340.688 251.992Z" fill="#1B02AF"/>
</svg>
