<svg width="94" height="94" viewBox="0 0 94 94" fill="none" xmlns="http://www.w3.org/2000/svg">
<g clip-path="url(#clip0_333_1004)">
<path d="M80.3019 13.6601C71.4653 4.8564 59.7153 0.00537136 47.1965 0C21.3997 0 0.406175 20.8944 0.395847 46.5767C0.392841 54.7861 2.54733 62.7997 6.64244 69.8635L0.00292969 94L24.8125 87.5232C31.648 91.2347 39.3444 93.1904 47.1764 93.1935H47.1963H47.1965C72.9893 93.1935 93.9859 72.2954 93.9968 46.6144C94.0012 34.1676 89.1372 22.4645 80.3019 13.6601V13.6601ZM47.1965 85.3266H47.1814C40.2003 85.3229 33.3543 83.4569 27.383 79.9292L25.962 79.0905L11.2395 82.9335L15.1702 68.6476L14.2443 67.183C10.3502 61.0185 8.29442 53.8946 8.29735 46.5797C8.30591 25.2334 25.7549 7.86728 47.2113 7.86728C57.6016 7.87157 67.3673 11.9038 74.7119 19.2212C82.0561 26.5385 86.0977 36.2659 86.0946 46.6111C86.0855 67.958 68.636 85.3266 47.1965 85.3266V85.3266Z" fill="#E0E0E0"/>
<path d="M2.15137 91.322L8.4876 68.288C4.57854 61.5468 2.52286 53.8987 2.52532 46.0658C2.53558 21.5572 22.5703 1.6178 47.1866 1.6178C59.1341 1.62317 70.3476 6.25236 78.7786 14.6542C87.2115 23.0559 91.8527 34.2236 91.8479 46.1006C91.8376 70.6098 71.8017 90.5509 47.1884 90.5509C47.1866 90.5509 47.1896 90.5509 47.1884 90.5509H47.1685C39.6942 90.5486 32.35 88.6806 25.8272 85.1412L2.15137 91.322V91.322Z" fill="url(#paint0_linear_333_1004)"/>
<path fill-rule="evenodd" clip-rule="evenodd" d="M35.6316 26.8026C34.7657 24.886 33.8541 24.8477 33.0304 24.8141C32.3566 24.7854 31.5852 24.7871 30.8151 24.7871C30.0444 24.7871 28.792 25.0755 27.7328 26.2271C26.6731 27.3787 23.6865 30.1627 23.6865 35.8248C23.6865 41.4875 27.8292 46.959 28.4066 47.7275C28.9847 48.4948 36.4035 60.4857 48.1529 65.0987C57.9176 68.9324 59.9047 68.1698 62.0242 67.978C64.1437 67.7862 68.8632 65.1946 69.8266 62.5071C70.79 59.8202 70.79 57.517 70.501 57.0356C70.2119 56.556 69.4412 56.2683 68.2851 55.6928C67.129 55.1173 61.4461 52.3327 60.3864 51.949C59.3266 51.5653 58.5559 51.3735 57.7852 52.5257C57.0145 53.6768 54.8004 56.2683 54.126 57.0356C53.4516 57.8047 52.7772 57.9006 51.6211 57.3251C50.4651 56.7479 46.7421 55.5339 42.3255 51.6132C38.8891 48.5631 36.5691 44.7959 35.8947 43.6437C35.2203 42.4927 35.8224 41.8693 36.4023 41.2955C36.9213 40.78 37.5584 39.9521 38.1364 39.2801C38.7132 38.608 38.9059 38.1284 39.2913 37.3611C39.6766 36.5925 39.484 35.9206 39.1949 35.3451C38.9059 34.7696 36.6594 29.0782 35.6316 26.8026V26.8026Z" fill="white"/>
<path d="M79.92 13.5122C71.1849 4.80948 59.5698 0.0142372 47.1949 0.00878906C21.694 0.00878906 0.941589 20.6634 0.931338 46.0508C0.928333 54.166 3.05808 62.0876 7.10618 69.0703L0.542969 92.9297L25.0678 86.5272C31.8249 90.196 39.4328 92.1294 47.175 92.1323H47.1946H47.1949C72.6915 92.1323 93.4469 71.4742 93.4578 46.0879C93.462 33.7842 88.654 22.2154 79.92 13.5122V13.5122ZM47.1949 84.3559H47.1799C40.2788 84.3523 33.5115 82.5077 27.6088 79.0206L26.204 78.1914L11.6505 81.9904L15.536 67.8684L14.6208 66.4206C10.7714 60.3269 8.73919 53.2848 8.7422 46.0538C8.7506 24.9527 25.9993 7.7859 47.2094 7.7859C57.4805 7.79012 67.1339 11.7761 74.3944 19.0094C81.6543 26.2428 85.6494 35.8585 85.6464 46.0851C85.6373 67.1868 68.388 84.3559 47.1949 84.3559Z" fill="white"/>
</g>
<defs>
<linearGradient id="paint0_linear_333_1004" x1="46.9996" y1="91.322" x2="46.9996" y2="1.61795" gradientUnits="userSpaceOnUse">
<stop stop-color="#20B038"/>
<stop offset="1" stop-color="#60D66A"/>
</linearGradient>
<clipPath id="clip0_333_1004">
<rect width="94" height="94" fill="white"/>
</clipPath>
</defs>
</svg>
