<svg width="93" height="134" viewBox="0 0 93 134" fill="none" xmlns="http://www.w3.org/2000/svg">
<path d="M88.3109 16.1101C88.3109 18.385 87.8235 20.4974 87.0111 22.4474C84.5738 27.8909 79.1305 31.7096 72.7936 31.7096C64.1818 31.7096 57.1949 24.7223 57.1949 16.1101C57.1949 7.49787 64.1818 0.51062 72.7936 0.51062C77.7494 0.51062 82.2177 2.86678 85.0612 6.44166C87.0923 9.20407 88.3109 12.5352 88.3109 16.1101Z" fill="#FBF9F9"/>
<path d="M12.8364 36.2595C8.77422 38.5344 6.01197 42.678 5.60575 47.4716C4.06214 47.4716 2.68101 46.8216 1.62486 45.8467C0.5687 44.8717 0 43.4093 0 41.8656C0 38.7782 2.51853 36.2595 5.60575 36.2595H12.8364Z" fill="#FBF9F9"/>
<path d="M92.1292 48.2029V88.989H87.3359V134H58.0885V88.989H54.1888V48.2029C54.1888 47.9592 54.1888 47.7967 54.1888 47.5529H50.3704C49.9642 42.6781 47.1207 38.5345 43.1398 36.3408H80.2677C85.3048 36.3408 89.6107 39.5095 91.398 43.8968C91.723 44.7905 91.9667 45.6842 92.1292 46.6592C92.1292 47.1467 92.1292 47.6342 92.1292 48.2029Z" fill="#FBF9F9"/>
<path d="M43.5461 16.1101C43.5461 24.7223 36.5592 31.7096 27.9475 31.7096C19.3358 31.7096 12.3489 24.7223 12.3489 16.1101C12.3489 7.49787 19.3358 0.51062 27.9475 0.51062C36.5592 0.51062 43.5461 7.57912 43.5461 16.1101Z" fill="#FBF9F9"/>
<path d="M46.8771 48.6904V87.2016H42.6525V134H13.405V87.2016H9.18042V48.6904C9.18042 48.2842 9.18042 47.8779 9.26166 47.4717C9.83036 42.1906 14.38 38.047 19.8232 38.047H36.2343C41.6775 38.047 46.2271 42.1906 46.7958 47.4717C46.7958 47.8779 46.8771 48.2842 46.8771 48.6904Z" fill="#FBF9F9"/>
</svg>
