<svg width="148" height="126" viewBox="0 0 148 126" fill="none" xmlns="http://www.w3.org/2000/svg">
<path d="M131.8 53.1453C131.8 69.3352 118.691 82.4456 102.502 82.4456C86.3125 82.4456 73.2029 69.3352 73.2029 53.1453C73.2029 36.9553 86.3125 23.845 102.502 23.845C118.691 23.845 131.8 36.9553 131.8 53.1453Z" fill="#FBF9F9"/>
<path d="M147.198 111.13V126H133.12V114.913H115.963V109.986H114.204V114.913H110.596V126H57.8058V111.13C57.8058 108.138 58.5976 105.323 60.0934 102.771C64.8445 94.5 76.4584 88.6047 90.0079 88.6047L101.446 101.891L114.995 88.6047C132.768 88.6047 147.198 98.7235 147.198 111.13Z" fill="#FBF9F9"/>
<path d="M66.252 50.6816L51.4707 44.6984C46.0157 48.4819 38.977 50.6816 31.2344 50.6816C25.2514 50.6816 19.7084 49.3618 14.9573 46.9861C5.98292 42.4986 0 34.4916 0 25.3408C0 11.3506 13.9895 0 31.2344 0C34.3138 0 37.3053 0.351956 40.1208 1.05587C53.0544 4.13548 62.4687 13.9022 62.4687 25.3408C62.4687 29.8282 61.061 33.9637 58.5974 37.6592L66.252 50.6816Z" fill="#FBF9F9"/>
</svg>
