<svg width="124" height="105" viewBox="0 0 124 105" fill="none" xmlns="http://www.w3.org/2000/svg">
<path d="M61.7162 24.01L107.161 58.8815V104.4H73.792V72.0298H49.569V104.4H16.2V58.8815L17.2003 58.167L61.7162 24.01Z" fill="white"/>
<path d="M107.161 58.8815V104.4H73.792V72.0298H49.569V104.4H16.2V58.8815L17.2003 58.167L61.7162 24.01L107.161 58.8815Z" fill="#FBF9F9"/>
<path d="M122.738 50.092L118.379 55.8087C117.379 57.0949 115.45 57.3808 114.164 56.3804L63.5026 17.5787C62.4308 16.7212 60.9302 16.7212 59.8584 17.5787L22.0592 46.5191L9.19745 56.3804C7.91127 57.3808 5.98199 57.1664 4.98164 55.8087L0.622953 50.092C-0.377405 48.8058 -0.163051 46.8764 1.19458 45.876L29.276 24.3672L57.7148 2.57247C60.0728 0.786021 63.3596 0.786021 65.7176 2.57247L84.9388 17.2928V4.28748C84.9388 1.92937 86.8681 0 89.2261 0H99.1582C101.516 0 103.374 1.92937 103.374 4.28748V31.4415L122.166 45.876C123.524 46.8764 123.738 48.7343 122.738 50.092Z" fill="#FBF9F9"/>
</svg>
