<svg width="112" height="104" viewBox="0 0 112 104" fill="none" xmlns="http://www.w3.org/2000/svg">
<path d="M83.311 31.6262V13.937C83.311 8.88291 79.1761 4.74776 74.1223 4.74776H4.82408V89.212C4.82408 94.266 8.959 98.4012 14.0128 98.4012H74.1223C79.1761 98.4012 83.311 94.266 83.311 89.212V53.8335L88.0585 48.7028V89.1354C88.0585 96.8696 81.7795 103.149 74.0457 103.149H14.0128C6.27896 103.149 0 96.8696 0 89.1354V0H74.1223C81.8561 0 88.1351 6.2793 88.1351 14.0136V26.7253L83.311 31.6262Z" fill="#FBF9F9"/>
<path d="M12.7111 13.4008V33.4639H75.424V13.4008H12.7111ZM70.8297 28.8693H17.3054V17.9954H70.8297V28.8693Z" fill="#FBF9F9"/>
<path d="M52.0696 47.2478H14.6256V55.4415H52.0696V47.2478Z" fill="#FBF9F9"/>
<path d="M52.0696 62.1039H14.6256V70.2976H52.0696V62.1039Z" fill="#FBF9F9"/>
<path d="M72.7442 76.9597H14.6256V85.1534H72.7442V76.9597Z" fill="#FBF9F9"/>
<path d="M103.649 14.0656L65.1466 52.559L73.2671 60.6822L111.769 22.1888L103.649 14.0656Z" fill="#FBF9F9"/>
<path d="M70.8295 63.1758L59.6499 66.2388L62.6362 54.9821L70.8295 63.1758Z" fill="#FBF9F9"/>
</svg>
