<svg width="86" height="117" viewBox="0 0 86 117" fill="none" xmlns="http://www.w3.org/2000/svg">
<path d="M77.8369 84.9978V51.0115C77.8369 44.5471 72.6095 39.2987 66.1709 39.2987C59.7323 39.2987 54.5049 44.5471 54.5049 51.0115V97.2226C54.5049 106.247 47.8751 113.608 39.6515 113.608C31.4917 113.608 24.7982 106.247 24.7982 97.2226V65.9245H30.5355C40.7353 65.9245 49.0226 57.6039 49.0226 47.3632V16.5131C49.0226 13.2489 48.1301 9.98469 46.5364 7.1685C47.0464 6.46445 47.3651 5.50436 47.3651 4.5443C47.3651 2.04812 45.3252 0 42.839 0C40.3528 0 38.3128 2.04812 38.3128 4.5443C38.3128 7.04047 40.3528 9.08863 42.839 9.08863C43.1577 9.08863 43.4127 9.08861 43.6677 9.0246C44.9427 11.3288 45.6439 13.8889 45.6439 16.5131V47.3632C45.6439 55.7478 38.8866 62.5323 30.5355 62.5323H18.4871C10.136 62.5323 3.37866 55.7478 3.37866 47.3632V16.5131C3.37866 13.8249 4.0799 11.2648 5.35487 8.96061C5.73736 9.02462 6.11984 9.08863 6.50233 9.08863C8.98852 9.08863 11.0285 7.04047 11.0285 4.5443C11.0285 2.04812 8.98852 0 6.50233 0C4.01614 0 1.97619 2.04812 1.97619 4.5443C1.97619 5.44036 2.23118 6.20842 2.61367 6.91247C0.892463 9.79266 0 13.1209 0 16.5131V47.3632C0 57.6039 8.2873 65.9245 18.4871 65.9245H21.4195V97.2226C21.4195 108.103 29.5793 117 39.5878 117C49.5963 117 57.7561 108.167 57.7561 97.2226V51.0115C57.7561 46.4032 61.4535 42.6909 66.0434 42.6909C70.6333 42.6909 74.3307 46.4032 74.3307 51.0115V84.9978C69.6133 85.8299 65.9797 89.9261 65.9797 94.9185C65.9797 100.487 70.5058 104.967 75.9882 104.967C81.5343 104.967 85.9967 100.487 85.9967 94.9185C86.1242 89.9261 82.5543 85.8299 77.8369 84.9978ZM76.1157 102.279C72.0995 102.279 68.7846 98.9508 68.7846 94.9185C68.7846 90.8862 72.0995 87.558 76.1157 87.558C80.1956 87.558 83.4468 90.8862 83.4468 94.9185C83.4468 98.9508 80.1956 102.279 76.1157 102.279Z" fill="#FBF9F9"/>
</svg>
